<?xml version="1.0" encoding="UTF-8" standalone="no"?>
<!-- Created with Inkscape (http://www.inkscape.org/) -->

<svg
   version="1.1"
   id="svg2"
   width="666.66669"
   height="666.66669"
   viewBox="0 0 666.66669 666.66669"
   sodipodi:docname="9214812.eps"
   xmlns:inkscape="http://www.inkscape.org/namespaces/inkscape"
   xmlns:sodipodi="http://sodipodi.sourceforge.net/DTD/sodipodi-0.dtd"
   xmlns="http://www.w3.org/2000/svg"
   xmlns:svg="http://www.w3.org/2000/svg">
  <defs
     id="defs6" />
  <sodipodi:namedview
     id="namedview4"
     pagecolor="#ffffff"
     bordercolor="#000000"
     borderopacity="0.25"
     inkscape:showpageshadow="2"
     inkscape:pageopacity="0.0"
     inkscape:pagecheckerboard="0"
     inkscape:deskcolor="#d1d1d1" />
  <g
     id="g8"
     inkscape:groupmode="layer"
     inkscape:label="ink_ext_XXXXXX"
     transform="matrix(1.3333333,0,0,-1.3333333,0,666.66667)">
    <g
       id="g10"
       transform="scale(0.1)">
      <path
         d="M 5000,0 H 0 V 5000 H 5000 V 0"
         style="fill:#e5ccc0;fill-opacity:1;fill-rule:nonzero;stroke:none"
         id="path12" />
      <path
         d="M 4873.83,1521.18 H 228.781 c 0,0 184.422,591.25 489.285,601.89 304.864,10.63 452.484,-401.84 795.704,-399.28 343.22,2.56 544.77,787.42 1093.99,872.57 549.23,85.16 504.04,-760.51 848.75,-756.73 344.71,3.78 458.76,337.96 792.88,337.96 334.12,0 624.44,-656.41 624.44,-656.41"
         style="fill:#c8a79a;fill-opacity:1;fill-rule:nonzero;stroke:none"
         id="path14" />
      <path
         d="m 3510.14,3221.59 c 0,-557.89 -452.25,-1010.15 -1010.14,-1010.15 -557.89,0 -1010.14,452.26 -1010.14,1010.15 0,557.89 452.25,1010.14 1010.14,1010.14 557.89,0 1010.14,-452.25 1010.14,-1010.14"
         style="fill:#f8e1cb;fill-opacity:1;fill-rule:nonzero;stroke:none"
         id="path16" />
      <path
         d="m 4609.58,2598.4 c 0,-152.33 -123.49,-275.82 -275.82,-275.82 -152.34,0 -275.83,123.49 -275.83,275.82 0,152.34 123.49,275.83 275.83,275.83 152.33,0 275.82,-123.49 275.82,-275.83"
         style="fill:#f8e1cb;fill-opacity:1;fill-rule:nonzero;stroke:none"
         id="path18" />
      <path
         d="M 3572.62,1181.72 H 1381.88 c -32.19,0 -58.53,26.34 -58.53,58.53 v 0 c 0,32.19 26.34,58.52 58.53,58.52 h 2190.74 c 32.19,0 58.53,-26.33 58.53,-58.52 v 0 c 0,-32.19 -26.34,-58.53 -58.53,-58.53"
         style="fill:#c8a79a;fill-opacity:1;fill-rule:nonzero;stroke:none"
         id="path20" />
      <path
         d="m 981.891,3742.08 18.289,-5.93 c 8.35,-2.71 8.35,-14.53 0,-17.24 l -18.289,-5.93 c -22.84,-7.4 -40.746,-25.31 -48.153,-48.15 l -5.929,-18.29 c -2.707,-8.35 -14.524,-8.35 -17.231,0 l -5.93,18.29 c -7.406,22.84 -25.312,40.75 -48.152,48.15 l -18.289,5.93 c -8.352,2.71 -8.352,14.53 0,17.24 l 18.289,5.93 c 22.84,7.4 40.746,25.31 48.152,48.15 l 5.93,18.29 c 2.707,8.35 14.524,8.35 17.231,0 l 5.929,-18.29 c 7.407,-22.84 25.313,-40.75 48.153,-48.15"
         style="fill:#ffffff;fill-opacity:1;fill-rule:nonzero;stroke:none"
         id="path22" />
      <path
         d="m 3591.28,3845.16 18.29,-5.93 c 8.35,-2.71 8.35,-14.52 0,-17.23 l -18.29,-5.93 c -22.84,-7.41 -40.74,-25.31 -48.15,-48.15 l -5.93,-18.29 c -2.71,-8.35 -14.52,-8.35 -17.23,0 l -5.93,18.29 c -7.41,22.84 -25.31,40.74 -48.15,48.15 l -18.29,5.93 c -8.35,2.71 -8.35,14.52 0,17.23 l 18.29,5.93 c 22.84,7.41 40.74,25.31 48.15,48.15 l 5.93,18.29 c 2.71,8.35 14.52,8.35 17.23,0 l 5.93,-18.29 c 7.41,-22.84 25.31,-40.74 48.15,-48.15"
         style="fill:#ffffff;fill-opacity:1;fill-rule:nonzero;stroke:none"
         id="path24" />
      <path
         d="m 3687.49,4045.39 10.59,-3.44 c 4.84,-1.56 4.84,-8.41 0,-9.98 l -10.59,-3.43 c -13.23,-4.29 -23.6,-14.66 -27.89,-27.9 l -3.44,-10.59 c -1.57,-4.84 -8.41,-4.84 -9.98,0 l -3.43,10.59 c -4.29,13.24 -14.67,23.61 -27.89,27.9 l -10.6,3.43 c -4.84,1.57 -4.84,8.42 0,9.98 l 10.6,3.44 c 13.22,4.29 23.6,14.66 27.89,27.89 l 3.43,10.6 c 1.57,4.83 8.41,4.83 9.98,0 l 3.44,-10.6 c 4.29,-13.23 14.66,-23.6 27.89,-27.89"
         style="fill:#ffffff;fill-opacity:1;fill-rule:nonzero;stroke:none"
         id="path26" />
      <path
         d="m 4779.57,2453.98 10.59,-3.43 c 4.84,-1.57 4.84,-8.42 0,-9.98 l -10.59,-3.44 c -13.23,-4.29 -23.6,-14.66 -27.89,-27.89 l -3.44,-10.6 c -1.57,-4.83 -8.41,-4.83 -9.98,0 l -3.43,10.6 c -4.3,13.23 -14.67,23.6 -27.9,27.89 l -10.59,3.44 c -4.84,1.56 -4.84,8.41 0,9.98 l 10.59,3.43 c 13.23,4.29 23.6,14.66 27.9,27.89 l 3.43,10.6 c 1.57,4.84 8.41,4.84 9.98,0 l 3.44,-10.6 c 4.29,-13.23 14.66,-23.6 27.89,-27.89"
         style="fill:#ffffff;fill-opacity:1;fill-rule:nonzero;stroke:none"
         id="path28" />
      <path
         d="m 597.297,1750.9 10.594,-3.44 c 4.836,-1.57 4.836,-8.41 0,-9.98 l -10.594,-3.43 c -13.231,-4.29 -23.602,-14.67 -27.895,-27.9 l -3.433,-10.59 c -1.571,-4.84 -8.414,-4.84 -9.981,0 l -3.437,10.59 c -4.289,13.23 -14.66,23.61 -27.891,27.9 l -10.594,3.43 c -4.836,1.57 -4.836,8.41 0,9.98 l 10.594,3.44 c 13.231,4.29 23.602,14.66 27.891,27.89 l 3.437,10.59 c 1.567,4.84 8.41,4.84 9.981,0 l 3.433,-10.59 c 4.293,-13.23 14.664,-23.6 27.895,-27.89"
         style="fill:#ffffff;fill-opacity:1;fill-rule:nonzero;stroke:none"
         id="path30" />
      <path
         d="M 3750.79,1841.73 H 1203.72 c -45.18,0 -82.14,36.96 -82.14,82.13 v 1656.35 c 0,45.17 36.96,82.13 82.14,82.13 h 2547.07 c 45.17,0 82.13,-36.96 82.13,-82.13 V 1923.86 c 0,-45.17 -36.96,-82.13 -82.13,-82.13"
         style="fill:#212e47;fill-opacity:1;fill-rule:nonzero;stroke:none"
         id="path32" />
      <path
         d="M 3709.43,1929.03 H 1245.08 c -23.36,0 -42.47,19.11 -42.47,42.47 v 1561.07 c 0,23.36 19.11,42.47 42.47,42.47 h 2464.35 c 23.35,0 42.46,-19.11 42.46,-42.47 V 1971.5 c 0,-23.36 -19.11,-42.47 -42.46,-42.47"
         style="fill:#a7cee4;fill-opacity:1;fill-rule:nonzero;stroke:none"
         id="path34" />
      <path
         d="m 2409.88,3049.5 c 0,-193.92 -157.2,-351.12 -351.11,-351.12 -193.92,0 -351.12,157.2 -351.12,351.12 0,193.92 157.2,351.12 351.12,351.12 193.91,0 351.11,-157.2 351.11,-351.12"
         style="fill:#badeec;fill-opacity:1;fill-rule:nonzero;stroke:none"
         id="path36" />
      <path
         d="m 2985.85,3087.48 h -518.7 c -22.35,0 -42.98,11.96 -54.09,31.34 l -35.01,61.09 c -7.85,13.72 -22.45,22.17 -38.25,22.17 h -306.67 c -24.35,0 -44.09,-19.74 -44.09,-44.09 v -128.98 -29.91 -530.51 c 0,-32.29 26.18,-58.47 58.47,-58.47 h 938.34 c 32.3,0 58.48,26.18 58.48,58.47 v 560.42 c 0,32.29 -26.18,58.47 -58.48,58.47"
         style="fill:#f36337;fill-opacity:1;fill-rule:nonzero;stroke:none"
         id="path38" />
      <path
         d="m 2860.81,2278.41 h -890.1 c -45.61,0 -82.59,36.98 -82.59,82.59 v 512.18 c 0,45.61 36.98,82.59 82.59,82.59 h 890.1 c 45.62,0 82.6,-36.98 82.6,-82.59 V 2361 c 0,-45.61 -36.98,-82.59 -82.6,-82.59"
         style="fill:#f7995c;fill-opacity:1;fill-rule:nonzero;stroke:none"
         id="path40" />
      <path
         d="m 2884.93,2278.41 h 94.38 c 35.91,0 65.02,29.11 65.02,65.02 v 139.1 c 0,0 -9.03,-61.58 -50.66,-61.58 -41.62,0 -50.26,31.93 -50.26,59.3 l -58.48,-201.84"
         style="fill:#f7995c;fill-opacity:1;fill-rule:nonzero;stroke:none"
         id="path42" />
      <path
         d="m 2636.42,2617.09 c 0,-121.86 -98.79,-220.65 -220.66,-220.65 -121.86,0 -220.65,98.79 -220.65,220.65 0,121.86 98.79,220.66 220.65,220.66 121.87,0 220.66,-98.8 220.66,-220.66"
         style="fill:#ffffff;fill-opacity:1;fill-rule:nonzero;stroke:none"
         id="path44" />
      <path
         d="m 2463.18,2617.09 68.2,68.2 c 13.09,13.09 13.09,34.32 0,47.42 -13.09,13.09 -34.32,13.09 -47.42,0 l -68.2,-68.2 -68.2,68.2 c -13.09,13.09 -34.32,13.09 -47.41,0 -13.1,-13.1 -13.1,-34.33 0,-47.42 l 68.2,-68.2 -68.2,-68.2 c -13.1,-13.09 -13.1,-34.32 0,-47.42 13.09,-13.09 34.32,-13.09 47.41,0 l 68.2,68.2 68.2,-68.2 c 13.1,-13.09 34.33,-13.09 47.42,0 13.09,13.1 13.09,34.33 0,47.42 l -68.2,68.2"
         style="fill:#e64b62;fill-opacity:1;fill-rule:nonzero;stroke:none"
         id="path46" />
      <path
         d="M 3711.54,3575.04 H 1242.96 c -22.19,0 -40.35,-18.16 -40.35,-40.35 v -52.9 h 2549.28 v 52.9 c 0,22.19 -18.16,40.35 -40.35,40.35"
         style="fill:#79aad7;fill-opacity:1;fill-rule:nonzero;stroke:none"
         id="path48" />
      <path
         d="m 3626.15,3506 h 58.43 c 7.31,0 13.24,5.92 13.24,13.24 v 21.68 c 0,7.31 -5.93,13.24 -13.24,13.24 h -58.43 c -7.31,0 -13.23,-5.93 -13.23,-13.24 v -21.68 c 0,-7.32 5.92,-13.24 13.23,-13.24"
         style="fill:#ffffff;fill-opacity:1;fill-rule:nonzero;stroke:none"
         id="path50" />
      <path
         d="m 3509.65,3513.44 h 58.42 c 7.31,0 13.24,5.92 13.24,13.23 v 6.81 c 0,7.31 -5.93,13.24 -13.24,13.24 h -58.42 c -7.31,0 -13.24,-5.93 -13.24,-13.24 v -6.81 c 0,-7.31 5.93,-13.23 13.24,-13.23"
         style="fill:#ffffff;fill-opacity:1;fill-rule:nonzero;stroke:none"
         id="path52" />
      <path
         d="m 3400.6,3513.44 h 58.42 c 7.31,0 13.24,5.92 13.24,13.23 v 6.81 c 0,7.31 -5.93,13.24 -13.24,13.24 h -58.42 c -7.31,0 -13.24,-5.93 -13.24,-13.24 v -6.81 c 0,-7.31 5.93,-13.23 13.24,-13.23"
         style="fill:#ffffff;fill-opacity:1;fill-rule:nonzero;stroke:none"
         id="path54" />
      <path
         d="m 3291.55,3513.44 h 58.43 c 7.31,0 13.23,5.92 13.23,13.23 v 6.81 c 0,7.31 -5.92,13.24 -13.23,13.24 h -58.43 c -7.31,0 -13.24,-5.93 -13.24,-13.24 v -6.81 c 0,-7.31 5.93,-13.23 13.24,-13.23"
         style="fill:#ffffff;fill-opacity:1;fill-rule:nonzero;stroke:none"
         id="path56" />
      <path
         d="m 1275.18,3512.03 h 58.43 c 7.31,0 13.23,5.93 13.23,13.24 v 6.8 c 0,7.31 -5.92,13.24 -13.23,13.24 h -58.43 c -7.31,0 -13.24,-5.93 -13.24,-13.24 v -6.8 c 0,-7.31 5.93,-13.24 13.24,-13.24"
         style="fill:#ffffff;fill-opacity:1;fill-rule:nonzero;stroke:none"
         id="path58" />
      <path
         d="m 1384.61,3512.03 h 58.43 c 7.31,0 13.23,5.93 13.23,13.24 v 6.8 c 0,7.31 -5.92,13.24 -13.23,13.24 h -58.43 c -7.31,0 -13.24,-5.93 -13.24,-13.24 v -6.8 c 0,-7.31 5.93,-13.24 13.24,-13.24"
         style="fill:#ffffff;fill-opacity:1;fill-rule:nonzero;stroke:none"
         id="path60" />
      <path
         d="m 2971.52,1951.3 c -52.04,45.19 -136.79,33.59 -189.65,-10.64 -4.42,-3.69 -8.58,-7.61 -12.63,-11.63 h 942.3 c 22.19,0 40.35,18.16 40.35,40.35 v 416.83 c -69.04,-15.75 -130.85,-58.09 -159.33,-122.57 -39.76,39.04 -116.52,26.59 -141.9,-23.01 -71.51,44.18 -168.67,42.63 -238.74,-3.79 -70.08,-46.43 -109.37,-135.3 -96.57,-218.38 -54.31,27.61 -130.13,-7.79 -143.83,-67.16"
         style="fill:#ffffff;fill-opacity:1;fill-rule:nonzero;stroke:none"
         id="path62" />
      <path
         d="m 2168.06,1964.37 c -47.22,27.74 -113.14,28.51 -152.8,-9.27 -19.79,78.54 -113.02,129.63 -189.88,104.04 -49.75,76.34 -169.61,93.98 -239.25,35.21 -16.47,51.86 -84.63,79.5 -132.58,53.78 -18.6,117.3 -134.25,206.32 -250.94,208.41 v -387.16 c 0,-22.19 18.16,-40.35 40.35,-40.35 h 967.96 c -12.58,13.71 -26.7,25.85 -42.86,35.34"
         style="fill:#ffffff;fill-opacity:1;fill-rule:nonzero;stroke:none"
         id="path64" />
      <path
         d="m 2795.52,1377.96 h -636.53 v 463.77 h 636.53 v -463.77"
         style="fill:#5c74c2;fill-opacity:1;fill-rule:nonzero;stroke:none"
         id="path66" />
      <path
         d="M 3471.29,1240.25 H 1471.01 c -37.9,0 -68.63,30.72 -68.63,68.62 v 0 c 0,37.91 30.73,68.63 68.63,68.63 h 2000.28 c 37.9,0 68.63,-30.72 68.63,-68.63 v 0 c 0,-37.9 -30.73,-68.62 -68.63,-68.62"
         style="fill:#212e47;fill-opacity:1;fill-rule:nonzero;stroke:none"
         id="path68" />
      <path
         d="m 2795.52,1841.73 -636.53,-84.9 v 84.9 z"
         style="fill:#212e47;fill-opacity:1;fill-rule:nonzero;stroke:none"
         id="path70" />
      <path
         d="m 4522.32,1258.85 c 0,-28.92 -94.19,-52.36 -210.39,-52.36 -116.2,0 -210.4,23.44 -210.4,52.36 0,28.91 94.2,52.35 210.4,52.35 116.2,0 210.39,-23.44 210.39,-52.35"
         style="fill:#c8a79a;fill-opacity:1;fill-rule:nonzero;stroke:none"
         id="path72" />
      <path
         d="m 4385.77,2161.19 c 14.33,39.93 32.81,78.37 55.04,114.5 18.75,30.48 40.7,59.85 70.01,80.4 14.03,9.84 33.32,17.41 47.64,8 8.81,-5.79 13.05,-16.67 13.97,-27.18 2.66,-30.45 -17.48,-57.61 -36.17,-81.81 -46.65,-60.41 -90.91,-123.17 -124.49,-191.72 -33.58,-68.54 -56.3,-143.36 -57.92,-219.68 -0.43,-20.18 2.86,-49.6 -9.82,-66.34 -16.81,15.07 -7.82,56.28 -7.05,76.43 1.35,35.32 3.31,70.64 6.73,105.84 6.65,68.44 18.77,136.69 42.06,201.56"
         style="fill:#212e47;fill-opacity:1;fill-rule:nonzero;stroke:none"
         id="path74" />
      <path
         d="m 4288.3,2195.83 c -10.88,41 -26.02,80.87 -45.09,118.77 -16.09,31.97 -35.46,63.1 -62.91,86.07 -13.14,10.99 -31.71,20.18 -46.78,12.03 -9.27,-5.02 -14.42,-15.5 -16.23,-25.89 -5.25,-30.11 12.51,-58.9 29.06,-84.59 41.33,-64.17 80.09,-130.47 107.71,-201.63 27.62,-71.16 43.89,-147.64 39,-223.82 -1.29,-20.14 -7.07,-49.17 4.13,-66.93 18.04,13.58 12.59,55.4 13.54,75.54 1.66,35.32 2.72,70.68 2.31,106.03 -0.8,68.76 -7.06,137.8 -24.74,204.42"
         style="fill:#212e47;fill-opacity:1;fill-rule:nonzero;stroke:none"
         id="path76" />
      <path
         d="m 4180.66,1909.77 c -27.6,24.96 -57.8,47.06 -89.94,65.82 -27.12,15.83 -56.25,29.47 -87.42,33.25 -14.93,1.8 -32.98,-0.32 -40.17,-13.52 -4.42,-8.12 -3.2,-18.29 0.43,-26.8 10.54,-24.66 37.36,-37.35 61.82,-48.34 61.08,-27.45 121.28,-57.7 175.62,-96.84 54.33,-39.15 102.86,-87.63 135.67,-146.01 8.69,-15.44 18.31,-39.56 35.04,-47.27 6.78,18.62 -17.22,46.78 -26.15,62.05 -15.66,26.77 -31.79,53.29 -48.99,79.11 -33.45,50.2 -71.06,97.99 -115.91,138.55"
         style="fill:#212e47;fill-opacity:1;fill-rule:nonzero;stroke:none"
         id="path78" />
      <path
         d="m 4444.7,1898.15 c 27.61,24.97 57.8,47.06 89.94,65.83 27.12,15.82 56.25,29.47 87.43,33.24 14.92,1.81 32.97,-0.31 40.16,-13.51 4.43,-8.12 3.2,-18.3 -0.43,-26.8 -10.53,-24.67 -37.36,-37.35 -61.82,-48.34 -61.08,-27.45 -121.28,-57.7 -175.61,-96.84 -54.34,-39.15 -102.86,-87.64 -135.68,-146.01 -8.68,-15.44 -18.31,-39.56 -35.04,-47.27 -6.78,18.61 17.23,46.78 26.16,62.05 15.66,26.77 31.78,53.29 48.98,79.1 33.45,50.2 71.06,98 115.91,138.55"
         style="fill:#212e47;fill-opacity:1;fill-rule:nonzero;stroke:none"
         id="path80" />
      <path
         d="m 4279.36,2271.57 c -1.64,87.6 0.36,178.91 40.09,257 19.51,38.35 49.54,73.5 89.91,88.38 40.38,14.88 91.72,4.42 115.35,-31.54 17.12,-26.04 17.31,-59.81 11.43,-90.41 -12.94,-67.34 -51.31,-126.48 -84.18,-186.67 -36.48,-66.79 -67.06,-137.22 -85.26,-211.12 -19.08,-77.48 -24.16,-157.56 -22.5,-237.13 1.4,-67.28 20.39,-142.46 13.26,-208.43 -53.04,53.66 -47.56,185.78 -55.02,254.96 -13.08,121.23 -20.79,243.05 -23.08,364.96"
         style="fill:#386c54;fill-opacity:1;fill-rule:nonzero;stroke:none"
         id="path82" />
      <path
         d="m 4543.73,2242.33 c 32.54,40.22 70.58,79.09 119.69,95.35 20.83,6.89 46.05,8.58 62.55,-5.88 18.11,-15.87 18.03,-43.98 13.16,-67.56 -19.4,-93.93 -88.58,-168.46 -154.92,-237.75 -43.98,-45.93 -87.96,-91.86 -131.95,-137.79 -44.49,-46.47 -91.14,-97.15 -101.05,-160.72 -4.69,-30.05 -0.29,-62.62 -12.79,-90.83 -16.7,92.54 14.73,212.39 42.54,300.67 34.78,110.4 89.94,214.48 162.77,304.51"
         style="fill:#386c54;fill-opacity:1;fill-rule:nonzero;stroke:none"
         id="path84" />
      <path
         d="m 4249.21,2029.07 c -31.99,120.29 -68.86,248.5 -164.34,328.35 -19.34,16.17 -45.18,30.52 -68.69,21.43 -30.07,-11.62 -34.94,-52.07 -30.51,-84 7.02,-50.54 24.84,-98.98 45.7,-145.55 27.95,-62.41 61.57,-122.28 100.31,-178.63 55.57,-80.84 122.92,-156.9 151.12,-250.87 4.56,-15.21 18.81,-107.66 39.16,-100.3 16.53,5.97 11.22,73.94 10.08,86.1 -10.16,107.4 -55.12,219.25 -82.83,323.47"
         style="fill:#386c54;fill-opacity:1;fill-rule:nonzero;stroke:none"
         id="path86" />
      <path
         d="m 4482.54,1258.85 h -340.83 l -29.07,498.44 h 398.97 l -29.07,-498.44"
         style="fill:#e64b62;fill-opacity:1;fill-rule:nonzero;stroke:none"
         id="path88" />
      <path
         d="m 4504.15,1629.41 c -7.77,2.67 -15.67,4.9 -23.76,6.32 -20.84,3.66 -39.07,0.32 -58.86,-6.28 -11.15,-3.73 -22.18,-7.04 -34.08,-5.8 -10.62,1.1 -20.84,4.92 -30.73,8.72 -17.57,6.75 -35.29,14.69 -54.53,14.07 -39.43,-1.25 -70.92,-34.47 -111.36,-20.74 -17.75,6.02 -34.85,15.32 -54.18,13.92 -5.71,-0.42 -11.4,-1.65 -16.95,-3.4 l 0.59,-10.05 c 9.69,3.28 19.65,5.08 30.49,2.5 17.24,-4.12 31.72,-15.6 49.23,-19 37.1,-7.22 66.39,22.21 102.18,23.36 36.81,1.2 66.7,-29.04 104.57,-22.1 21.83,4.01 40.22,14.41 63.13,12.15 11.53,-1.14 22.62,-4.3 33.4,-8.42 l 0.86,14.75"
         style="fill:#ffffff;fill-opacity:1;fill-rule:nonzero;stroke:none"
         id="path90" />
      <path
         d="m 4117.65,1671.29 c 10.58,4.4 21.59,6.96 34.87,4.75 20.87,-3.46 39.43,-15.03 60.34,-18.43 20.46,-3.32 36.25,4.22 54.01,13.26 19.58,9.97 38.46,11.1 59.74,6.46 35.92,-7.83 72.18,-25.77 109.54,-15.67 21.66,5.86 39.67,15.52 62.9,13.61 2.67,-0.22 5.18,-0.69 7.71,-1.15 l 0.83,14.3 c -10.55,1.54 -21.13,1.71 -30.87,0.51 -17.67,-2.18 -33.09,-11 -50.33,-14.49 -17.15,-3.47 -34.74,-0.01 -51.35,4.5 -29.35,7.98 -59.52,20.39 -90.43,14.03 -17.7,-3.63 -31.69,-15.83 -48.88,-20.57 -18.84,-5.19 -37.44,2.8 -55.05,8.81 -17.89,6.1 -43.32,9.92 -63.83,3.84 l 0.8,-13.76"
         style="fill:#ffffff;fill-opacity:1;fill-rule:nonzero;stroke:none"
         id="path92" />
      <path
         d="m 1182.23,1027.18 c 0,-40.379 -143.38,-73.11 -320.257,-73.11 -176.875,0 -320.258,32.731 -320.258,73.11 0,40.38 143.383,73.11 320.258,73.11 176.877,0 320.257,-32.73 320.257,-73.11"
         style="fill:#c8a79a;fill-opacity:1;fill-rule:nonzero;stroke:none"
         id="path94" />
      <path
         d="m 652.195,1572 h 450.885 c 9.21,0 16.67,-7.47 16.67,-16.67 v -487.17 c 0,-30.48 -24.71,-55.2 -55.19,-55.2 H 690.715 c -30.485,0 -55.195,24.72 -55.195,55.2 v 487.17 c 0,9.2 7.464,16.67 16.675,16.67"
         style="fill:#ffffff;fill-opacity:1;fill-rule:nonzero;stroke:none"
         id="path96" />
      <path
         d="m 712.965,1224.93 c 0,-19.91 -16.141,-36.05 -36.055,-36.05 h -99.515 c -19.915,0 -36.059,16.14 -36.059,36.05 v 150.33 c 0,19.91 16.144,36.06 36.059,36.06 h 99.515 c 19.914,0 36.055,-16.15 36.055,-36.06 z m 0.371,258.24 H 540.965 c -39.133,0 -70.856,-31.72 -70.856,-70.85 v -224.44 c 0,-39.14 31.723,-70.86 70.856,-70.86 h 172.371 c 39.133,0 70.859,31.72 70.859,70.86 v 224.44 c 0,39.13 -31.726,70.85 -70.859,70.85"
         style="fill:#ffffff;fill-opacity:1;fill-rule:nonzero;stroke:none"
         id="path98" />
      <path
         d="m 635.52,1483.17 v -71.85 h -16.196 z"
         style="fill:#a7cee4;fill-opacity:1;fill-rule:nonzero;stroke:none"
         id="path100" />
      <path
         d="m 635.52,1189.19 v -71.86 h -16.196 z"
         style="fill:#a7cee4;fill-opacity:1;fill-rule:nonzero;stroke:none"
         id="path102" />
      <path
         d="m 4400.85,788.84 v 0 c 42.73,88.84 14.97,238.83 -166.52,283.33 0.01,0 0.01,0.01 0.01,0.01 -0.02,0 -0.03,0 -0.05,0 -4.77,1.17 -9.6,2.3 -14.59,3.33 -6.19,1.31 -12.5,2.53 -19.08,3.56 -0.05,0.01 -0.1,0.02 -0.16,0.03 -0.82,0.13 -1.57,0.2 -2.38,0.33 -0.64,0.08 -1.28,0.17 -1.94,0.27 v -0.01 c -77.77,11.7 -138.87,8.04 -185.75,-5.88 -0.08,-0.02 -0.16,-0.04 -0.24,-0.06 -103.64,-30.86 -137.78,-111.668 -129.4,-186.578 v 0 c 0,0 0,-0.012 0,-0.024 0.46,-4.058 1.05,-8.097 1.75,-12.117 0.01,-0.043 0.01,-0.082 0.02,-0.121 1.89,-10.808 4.61,-21.449 8.17,-31.711 40.51,-116.758 345.51,-162.027 452.74,-114.367 20.04,8.898 37.16,25.219 49.97,46.148 v 0 0 c 2.7,4.399 5.14,9.059 7.44,13.852 0,0 0.01,0 0.01,0.008"
         style="fill:#c8a79a;fill-opacity:1;fill-rule:nonzero;stroke:none"
         id="path104" />
      <path
         d="m 4224.24,1123.01 c -283.29,44.34 -344.14,-117.05 -304.34,-231.772 39.8,-114.707 339.46,-159.187 444.8,-112.367 105.35,46.82 128.76,301.999 -140.46,344.139"
         style="fill:#ffffff;fill-opacity:1;fill-rule:nonzero;stroke:none"
         id="path106" />
      <path
         d="m 4224.24,1123.01 c -1.45,0.23 -2.8,0.37 -4.24,0.59 -0.21,-0.08 -0.43,-0.15 -0.64,-0.23 -23.65,-8.87 -46.28,-20.17 -67.54,-33.66 -11.82,8.5 -26.58,14.19 -40.11,19.24 -14.88,5.55 -30.39,9.96 -46.08,12.5 -3.17,0.51 -6.39,0.72 -9.58,1.11 -12.93,-2.87 -25.01,-6.37 -36.05,-10.59 14.48,-0.76 28.7,-2.87 42.88,-5.94 14.19,-3.06 28.11,-6.97 41.67,-12.19 10.85,-4.18 20.85,-9.83 31.12,-15.03 -7.37,-5.25 -14.57,-10.72 -21.55,-16.51 -30.03,-24.95 -56.15,-55.78 -75.99,-89.409 -9.5,-16.082 -17.66,-32.903 -24.65,-50.219 -7.15,-17.692 -15.3,-37.492 -14.52,-56.852 0.15,-3.738 5.22,-5.371 7.2,-1.949 9.13,15.809 13.36,34.371 20.68,51.09 7.45,17.027 16.29,33.48 26.32,49.148 19.75,30.871 43.6,58.431 71.49,82.241 29.46,25.15 63.56,45.07 99.69,58.98 10.86,4.18 21.96,7.77 33.18,10.88 -10.61,2.6 -21.57,4.97 -33.28,6.8"
         style="fill:#a7cee4;fill-opacity:1;fill-rule:nonzero;stroke:none"
         id="path108" />
      <path
         d="m 4413.8,824.211 c 2.66,4.328 5.06,8.918 7.32,13.621 -63.97,-23.383 -134.54,-29.23 -202.19,-30.461 -92.85,-1.691 -186.45,17.481 -259.51,77.731 -17.17,14.168 -32.97,29.968 -47.4,46.929 -0.67,0.778 -1.23,1.617 -1.89,2.418 0.9,-8.019 2.31,-15.949 4.16,-23.75 7.46,-8.558 15.24,-16.64 23.09,-24.07 31.74,-29.988 69.69,-52.957 110.49,-68.367 92.28,-34.864 199.6,-31.34 295.06,-12.5 24.03,4.738 47.78,10.718 70.87,18.449"
         style="fill:#a7cee4;fill-opacity:1;fill-rule:nonzero;stroke:none"
         id="path110" />
      <path
         d="m 3480.93,947.082 c -3.51,4.938 -9.2,7.879 -15.26,7.879 H 1419.85 c -6.07,0 -11.75,-2.941 -15.26,-7.879 l -188.2,-265.32 v -29.391 c 0,-7.41 6.01,-13.422 13.41,-13.422 h 2425.91 c 7.41,0 13.42,6.012 13.42,13.422 v 29.391 l -188.2,265.32"
         style="fill:#c8a79a;fill-opacity:1;fill-rule:nonzero;stroke:none"
         id="path112" />
      <path
         d="M 3684.74,715.32 H 1232 l 188.2,265.328 c 3.5,4.942 9.19,7.883 15.25,7.883 h 2045.83 c 6.06,0 11.75,-2.941 15.26,-7.883 l 188.2,-265.328"
         style="fill:#a7cee4;fill-opacity:1;fill-rule:nonzero;stroke:none"
         id="path114" />
      <path
         d="M 3623.35,738.738 H 1297.87 l 152.01,226.371 h 2016.97 l 156.5,-226.371"
         style="fill:#ffffff;fill-opacity:1;fill-rule:nonzero;stroke:none"
         id="path116" />
      <path
         d="m 1245.84,672.52 h 2425.05 c 7.65,0 13.85,6.199 13.85,13.839 V 715.32 H 1232 v -28.961 c 0,-7.64 6.2,-13.839 13.84,-13.839"
         style="fill:#5c74c2;fill-opacity:1;fill-rule:nonzero;stroke:none"
         id="path118" />
      <path
         d="M 3525.36,932.25 H 1402.82 v 4.852 h 2122.54 v -4.852"
         style="fill:#a7cee4;fill-opacity:1;fill-rule:nonzero;stroke:none"
         id="path120" />
      <path
         d="M 3556.62,887.77 H 1361.86 v 4.851 h 2194.76 v -4.851"
         style="fill:#a7cee4;fill-opacity:1;fill-rule:nonzero;stroke:none"
         id="path122" />
      <path
         d="M 3591.98,837.039 H 1336.2 v 4.852 h 2255.78 v -4.852"
         style="fill:#a7cee4;fill-opacity:1;fill-rule:nonzero;stroke:none"
         id="path124" />
      <path
         d="M 3612.37,786.031 H 1315.81 v 4.848 h 2296.56 v -4.848"
         style="fill:#a7cee4;fill-opacity:1;fill-rule:nonzero;stroke:none"
         id="path126" />
      <path
         d="m 2463.03,934.68 h -4.85 v 40.57 h 4.85 v -40.57"
         style="fill:#a7cee4;fill-opacity:1;fill-rule:nonzero;stroke:none"
         id="path128" />
      <path
         d="m 2460.78,839.469 h -4.84 v 50.722 h 4.84 v -50.722"
         style="fill:#a7cee4;fill-opacity:1;fill-rule:nonzero;stroke:none"
         id="path130" />
      <path
         d="m 2381.66,788 -4.77,0.91 9.69,51.012 4.77,-0.91 -9.69,-51.012"
         style="fill:#a7cee4;fill-opacity:1;fill-rule:nonzero;stroke:none"
         id="path132" />
      <path
         d="m 2381.64,889.68 -4.73,1.031 9.69,44.48 4.73,-1.031 -9.69,-44.48"
         style="fill:#a7cee4;fill-opacity:1;fill-rule:nonzero;stroke:none"
         id="path134" />
      <path
         d="m 2309.5,934.121 -4.71,1.109 9.69,40.579 4.71,-1.118 -9.69,-40.57"
         style="fill:#a7cee4;fill-opacity:1;fill-rule:nonzero;stroke:none"
         id="path136" />
      <path
         d="m 2307.28,839.012 -4.75,0.91 9.69,50.726 4.75,-0.906 -9.69,-50.73"
         style="fill:#a7cee4;fill-opacity:1;fill-rule:nonzero;stroke:none"
         id="path138" />
      <path
         d="m 2237.89,788 -4.77,0.91 9.69,51.012 4.77,-0.91 -9.69,-51.012"
         style="fill:#a7cee4;fill-opacity:1;fill-rule:nonzero;stroke:none"
         id="path140" />
      <path
         d="m 2237.87,889.68 -4.73,1.031 9.69,44.48 4.73,-1.031 -9.69,-44.48"
         style="fill:#a7cee4;fill-opacity:1;fill-rule:nonzero;stroke:none"
         id="path142" />
      <path
         d="m 2165.72,934.121 -4.71,1.109 9.69,40.579 4.71,-1.118 -9.69,-40.57"
         style="fill:#a7cee4;fill-opacity:1;fill-rule:nonzero;stroke:none"
         id="path144" />
      <path
         d="m 2163.5,839.012 -4.75,0.91 9.69,50.726 4.75,-0.906 -9.69,-50.73"
         style="fill:#a7cee4;fill-opacity:1;fill-rule:nonzero;stroke:none"
         id="path146" />
      <path
         d="m 2094.12,788 -4.77,0.91 9.69,51.012 4.77,-0.91 -9.69,-51.012"
         style="fill:#a7cee4;fill-opacity:1;fill-rule:nonzero;stroke:none"
         id="path148" />
      <path
         d="m 2094.1,889.68 -4.73,1.031 9.69,44.48 4.73,-1.031 -9.69,-44.48"
         style="fill:#a7cee4;fill-opacity:1;fill-rule:nonzero;stroke:none"
         id="path150" />
      <path
         d="m 2021.95,934.121 -4.72,1.109 9.69,40.579 4.72,-1.118 -9.69,-40.57"
         style="fill:#a7cee4;fill-opacity:1;fill-rule:nonzero;stroke:none"
         id="path152" />
      <path
         d="m 2019.73,839.012 -4.75,0.91 9.69,50.726 4.75,-0.906 -9.69,-50.73"
         style="fill:#a7cee4;fill-opacity:1;fill-rule:nonzero;stroke:none"
         id="path154" />
      <path
         d="m 1950.33,788 -4.76,0.91 9.69,51.012 4.76,-0.91 -9.69,-51.012"
         style="fill:#a7cee4;fill-opacity:1;fill-rule:nonzero;stroke:none"
         id="path156" />
      <path
         d="m 1950.32,889.68 -4.74,1.031 9.69,44.48 4.73,-1.031 -9.68,-44.48"
         style="fill:#a7cee4;fill-opacity:1;fill-rule:nonzero;stroke:none"
         id="path158" />
      <path
         d="m 1878.17,934.121 -4.71,1.109 9.69,40.579 4.71,-1.118 -9.69,-40.57"
         style="fill:#a7cee4;fill-opacity:1;fill-rule:nonzero;stroke:none"
         id="path160" />
      <path
         d="m 1875.95,839.012 -4.75,0.91 9.69,50.726 4.75,-0.906 -9.69,-50.73"
         style="fill:#a7cee4;fill-opacity:1;fill-rule:nonzero;stroke:none"
         id="path162" />
      <path
         d="m 1806.56,788 -4.77,0.91 9.69,51.012 4.77,-0.91 -9.69,-51.012"
         style="fill:#a7cee4;fill-opacity:1;fill-rule:nonzero;stroke:none"
         id="path164" />
      <path
         d="m 1806.54,889.68 -4.73,1.031 9.69,44.48 4.73,-1.031 -9.69,-44.48"
         style="fill:#a7cee4;fill-opacity:1;fill-rule:nonzero;stroke:none"
         id="path166" />
      <path
         d="m 1734.4,934.121 -4.71,1.109 9.69,40.579 4.71,-1.118 -9.69,-40.57"
         style="fill:#a7cee4;fill-opacity:1;fill-rule:nonzero;stroke:none"
         id="path168" />
      <path
         d="m 1732.18,839.012 -4.75,0.91 9.69,50.726 4.75,-0.906 -9.69,-50.73"
         style="fill:#a7cee4;fill-opacity:1;fill-rule:nonzero;stroke:none"
         id="path170" />
      <path
         d="m 1662.79,788 -4.77,0.91 9.69,51.012 4.77,-0.91 -9.69,-51.012"
         style="fill:#a7cee4;fill-opacity:1;fill-rule:nonzero;stroke:none"
         id="path172" />
      <path
         d="m 1662.77,889.68 -4.73,1.031 9.69,44.48 4.73,-1.031 -9.69,-44.48"
         style="fill:#a7cee4;fill-opacity:1;fill-rule:nonzero;stroke:none"
         id="path174" />
      <path
         d="m 1590.62,934.121 -4.71,1.109 9.69,40.579 4.71,-1.118 -9.69,-40.57"
         style="fill:#a7cee4;fill-opacity:1;fill-rule:nonzero;stroke:none"
         id="path176" />
      <path
         d="m 1588.41,839.012 -4.75,0.91 9.69,50.726 4.75,-0.906 -9.69,-50.73"
         style="fill:#a7cee4;fill-opacity:1;fill-rule:nonzero;stroke:none"
         id="path178" />
      <path
         d="m 1519.02,788 -4.77,0.91 9.69,51.012 4.77,-0.91 -9.69,-51.012"
         style="fill:#a7cee4;fill-opacity:1;fill-rule:nonzero;stroke:none"
         id="path180" />
      <path
         d="m 1519,889.68 -4.73,1.031 9.69,44.48 4.73,-1.031 -9.69,-44.48"
         style="fill:#a7cee4;fill-opacity:1;fill-rule:nonzero;stroke:none"
         id="path182" />
      <path
         d="m 3419.33,788 -9.69,51.012 4.77,0.91 9.69,-51.012 -4.77,-0.91"
         style="fill:#a7cee4;fill-opacity:1;fill-rule:nonzero;stroke:none"
         id="path184" />
      <path
         d="m 3419.35,889.68 -9.69,44.48 4.73,1.031 9.69,-44.48 -4.73,-1.031"
         style="fill:#a7cee4;fill-opacity:1;fill-rule:nonzero;stroke:none"
         id="path186" />
      <path
         d="m 3347.22,934.121 -9.68,40.57 4.71,1.118 9.69,-40.579 -4.72,-1.109"
         style="fill:#a7cee4;fill-opacity:1;fill-rule:nonzero;stroke:none"
         id="path188" />
      <path
         d="m 3344.96,839.012 -9.69,50.73 4.75,0.906 9.69,-50.726 -4.75,-0.91"
         style="fill:#a7cee4;fill-opacity:1;fill-rule:nonzero;stroke:none"
         id="path190" />
      <path
         d="m 3275.56,788 -9.69,51.012 4.77,0.91 9.69,-51.012 -4.77,-0.91"
         style="fill:#a7cee4;fill-opacity:1;fill-rule:nonzero;stroke:none"
         id="path192" />
      <path
         d="m 3275.58,889.68 -9.69,44.48 4.73,1.031 9.69,-44.48 -4.73,-1.031"
         style="fill:#a7cee4;fill-opacity:1;fill-rule:nonzero;stroke:none"
         id="path194" />
      <path
         d="m 3198.54,934.68 h -4.84 v 40.57 h 4.84 v -40.57"
         style="fill:#a7cee4;fill-opacity:1;fill-rule:nonzero;stroke:none"
         id="path196" />
      <path
         d="m 3201.19,839.012 -9.69,50.73 4.75,0.906 9.69,-50.726 -4.75,-0.91"
         style="fill:#a7cee4;fill-opacity:1;fill-rule:nonzero;stroke:none"
         id="path198" />
      <path
         d="m 3131.78,788 -9.69,51.012 4.77,0.91 9.69,-51.012 -4.77,-0.91"
         style="fill:#a7cee4;fill-opacity:1;fill-rule:nonzero;stroke:none"
         id="path200" />
      <path
         d="m 3131.8,889.68 -9.69,44.48 4.74,1.031 9.68,-44.48 -4.73,-1.031"
         style="fill:#a7cee4;fill-opacity:1;fill-rule:nonzero;stroke:none"
         id="path202" />
      <path
         d="m 3054.76,934.68 h -4.84 v 40.57 h 4.84 v -40.57"
         style="fill:#a7cee4;fill-opacity:1;fill-rule:nonzero;stroke:none"
         id="path204" />
      <path
         d="m 3057.42,839.012 -9.69,50.73 4.75,0.906 9.69,-50.726 -4.75,-0.91"
         style="fill:#a7cee4;fill-opacity:1;fill-rule:nonzero;stroke:none"
         id="path206" />
      <path
         d="m 2988.01,788 -9.69,51.012 4.77,0.91 9.69,-51.012 -4.77,-0.91"
         style="fill:#a7cee4;fill-opacity:1;fill-rule:nonzero;stroke:none"
         id="path208" />
      <path
         d="m 2988.03,889.68 -9.69,44.48 4.73,1.031 9.69,-44.48 -4.73,-1.031"
         style="fill:#a7cee4;fill-opacity:1;fill-rule:nonzero;stroke:none"
         id="path210" />
      <path
         d="m 2910.99,934.68 h -4.85 v 40.57 h 4.85 v -40.57"
         style="fill:#a7cee4;fill-opacity:1;fill-rule:nonzero;stroke:none"
         id="path212" />
      <path
         d="m 2913.64,839.012 -9.69,50.73 4.75,0.906 9.69,-50.726 -4.75,-0.91"
         style="fill:#a7cee4;fill-opacity:1;fill-rule:nonzero;stroke:none"
         id="path214" />
      <path
         d="m 2844.23,788 -9.69,51.012 4.77,0.91 9.69,-51.012 -4.77,-0.91"
         style="fill:#a7cee4;fill-opacity:1;fill-rule:nonzero;stroke:none"
         id="path216" />
      <path
         d="m 2844.25,889.68 -9.69,44.48 4.73,1.031 9.69,-44.48 -4.73,-1.031"
         style="fill:#a7cee4;fill-opacity:1;fill-rule:nonzero;stroke:none"
         id="path218" />
      <path
         d="m 2772.13,934.121 -9.69,40.57 4.71,1.118 9.69,-40.579 -4.71,-1.109"
         style="fill:#a7cee4;fill-opacity:1;fill-rule:nonzero;stroke:none"
         id="path220" />
      <path
         d="m 2769.87,839.012 -9.69,50.73 4.75,0.906 9.69,-50.726 -4.75,-0.91"
         style="fill:#a7cee4;fill-opacity:1;fill-rule:nonzero;stroke:none"
         id="path222" />
      <path
         d="m 2700.46,788 -9.69,51.012 4.77,0.91 9.69,-51.012 -4.77,-0.91"
         style="fill:#a7cee4;fill-opacity:1;fill-rule:nonzero;stroke:none"
         id="path224" />
      <path
         d="m 2700.48,889.68 -9.69,44.48 4.73,1.031 9.69,-44.48 -4.73,-1.031"
         style="fill:#a7cee4;fill-opacity:1;fill-rule:nonzero;stroke:none"
         id="path226" />
      <path
         d="m 2628.35,934.121 -9.69,40.57 4.71,1.118 9.69,-40.579 -4.71,-1.109"
         style="fill:#a7cee4;fill-opacity:1;fill-rule:nonzero;stroke:none"
         id="path228" />
      <path
         d="m 2626.09,839.012 -9.69,50.73 4.75,0.906 9.69,-50.726 -4.75,-0.91"
         style="fill:#a7cee4;fill-opacity:1;fill-rule:nonzero;stroke:none"
         id="path230" />
      <path
         d="m 2019.73,736.441 -4.75,0.911 9.69,50.718 4.75,-0.91 -9.69,-50.719"
         style="fill:#a7cee4;fill-opacity:1;fill-rule:nonzero;stroke:none"
         id="path232" />
      <path
         d="m 1875.95,736.441 -4.75,0.911 9.69,50.718 4.75,-0.91 -9.69,-50.719"
         style="fill:#a7cee4;fill-opacity:1;fill-rule:nonzero;stroke:none"
         id="path234" />
      <path
         d="m 1732.18,736.441 -4.75,0.911 9.69,50.718 4.75,-0.91 -9.69,-50.719"
         style="fill:#a7cee4;fill-opacity:1;fill-rule:nonzero;stroke:none"
         id="path236" />
      <path
         d="m 1588.41,736.441 -4.75,0.911 9.69,50.718 4.75,-0.91 -9.69,-50.719"
         style="fill:#a7cee4;fill-opacity:1;fill-rule:nonzero;stroke:none"
         id="path238" />
      <path
         d="m 3344.96,736.441 -9.69,50.719 4.75,0.91 9.69,-50.718 -4.75,-0.911"
         style="fill:#a7cee4;fill-opacity:1;fill-rule:nonzero;stroke:none"
         id="path240" />
      <path
         d="m 3201.19,736.441 -9.69,50.719 4.75,0.91 9.69,-50.718 -4.75,-0.911"
         style="fill:#a7cee4;fill-opacity:1;fill-rule:nonzero;stroke:none"
         id="path242" />
      <path
         d="m 3057.42,736.441 -9.69,50.719 4.75,0.91 9.69,-50.718 -4.75,-0.911"
         style="fill:#a7cee4;fill-opacity:1;fill-rule:nonzero;stroke:none"
         id="path244" />
      <path
         d="m 2913.64,736.441 -9.69,50.719 4.75,0.91 9.69,-50.718 -4.75,-0.911"
         style="fill:#a7cee4;fill-opacity:1;fill-rule:nonzero;stroke:none"
         id="path246" />
      <path
         d="m 2556.69,788 -9.69,51.012 4.77,0.91 9.69,-51.012 -4.77,-0.91"
         style="fill:#a7cee4;fill-opacity:1;fill-rule:nonzero;stroke:none"
         id="path248" />
      <path
         d="m 2556.71,889.68 -9.69,44.48 4.73,1.031 9.69,-44.48 -4.73,-1.031"
         style="fill:#a7cee4;fill-opacity:1;fill-rule:nonzero;stroke:none"
         id="path250" />
      <path
         d="M 2393.69,4258.82 H 1382.04 c -48.92,0 -88.57,-39.65 -88.57,-88.56 v -554.17 c 0,-48.91 39.65,-88.56 88.57,-88.56 h 661.65 l 97.93,-169.61 c 11.38,-19.72 39.85,-19.72 51.23,0 l 97.93,169.61 h 102.91 c 48.91,0 88.56,39.65 88.56,88.56 v 554.17 c 0,48.91 -39.65,88.56 -88.56,88.56"
         style="fill:#ffffff;fill-opacity:1;fill-rule:nonzero;stroke:none"
         id="path252" />
      <path
         d="m 3969.34,3842.21 c -43.9,0 -79.49,35.58 -79.49,79.49 0,43.9 35.59,79.49 79.49,79.49 43.9,0 79.49,-35.59 79.49,-79.49 0,-43.91 -35.59,-79.49 -79.49,-79.49 z m 166.65,121.93 h -17.7 c -3.28,11.57 -7.87,22.58 -13.61,32.87 l 12.51,12.51 c 9.42,9.43 9.42,24.71 0,34.13 l -25.9,25.9 c -9.42,9.42 -24.7,9.42 -34.12,0 l -12.51,-12.51 c -10.29,5.74 -21.31,10.32 -32.88,13.61 v 17.69 c 0,13.33 -10.8,24.14 -24.13,24.14 h -36.62 c -13.33,0 -24.13,-10.81 -24.13,-24.14 v -17.69 c -11.57,-3.29 -22.59,-7.87 -32.88,-13.61 l -12.5,12.51 c -9.43,9.42 -24.71,9.42 -34.13,0 l -25.9,-25.9 c -9.42,-9.42 -9.42,-24.7 0,-34.13 l 12.51,-12.51 c -5.74,-10.29 -10.32,-21.3 -13.61,-32.87 h -17.7 c -13.32,0 -24.13,-10.8 -24.13,-24.13 v -36.62 c 0,-13.33 10.81,-24.14 24.13,-24.14 h 17.7 c 3.29,-11.56 7.87,-22.58 13.61,-32.87 l -12.51,-12.51 c -9.42,-9.42 -9.42,-24.7 0,-34.13 l 25.9,-25.89 c 9.42,-9.43 24.7,-9.43 34.13,0 l 12.5,12.5 c 10.29,-5.74 21.31,-10.32 32.88,-13.61 v -17.69 c 0,-13.33 10.8,-24.13 24.13,-24.13 h 36.62 c 13.33,0 24.13,10.8 24.13,24.13 v 17.69 c 11.57,3.29 22.59,7.87 32.88,13.61 l 12.51,-12.5 c 9.42,-9.43 24.7,-9.43 34.12,0 l 25.9,25.89 c 9.42,9.43 9.42,24.71 0,34.13 l -12.51,12.51 c 5.74,10.29 10.33,21.31 13.61,32.87 h 17.7 c 13.33,0 24.13,10.81 24.13,24.14 v 36.62 c 0,13.33 -10.8,24.13 -24.13,24.13"
         style="fill:#ffffff;fill-opacity:1;fill-rule:nonzero;stroke:none"
         id="path254" />
      <path
         d="m 4160.39,3570.42 c -27.04,0 -48.96,21.92 -48.96,48.96 0,27.04 21.92,48.95 48.96,48.95 27.04,0 48.95,-21.91 48.95,-48.95 0,-27.04 -21.91,-48.96 -48.95,-48.96 z m 102.63,75.1 h -10.89 c -2.03,7.12 -4.85,13.9 -8.39,20.24 l 7.71,7.71 c 5.8,5.8 5.8,15.21 0,21.02 l -15.95,15.94 c -5.81,5.81 -15.22,5.81 -21.02,0 l -7.71,-7.7 c -6.33,3.54 -13.12,6.36 -20.24,8.39 v 10.89 c 0,8.21 -6.66,14.86 -14.86,14.86 h -22.56 c -8.21,0 -14.86,-6.65 -14.86,-14.86 v -10.89 c -7.12,-2.03 -13.91,-4.85 -20.25,-8.39 l -7.7,7.7 c -5.8,5.81 -15.21,5.81 -21.02,0 l -15.95,-15.94 c -5.8,-5.81 -5.8,-15.22 0,-21.02 l 7.71,-7.71 c -3.54,-6.34 -6.36,-13.12 -8.39,-20.24 h -10.89 c -8.21,0 -14.87,-6.66 -14.87,-14.86 v -22.56 c 0,-8.21 6.66,-14.86 14.87,-14.86 h 10.89 c 2.03,-7.13 4.85,-13.91 8.39,-20.25 l -7.71,-7.7 c -5.8,-5.81 -5.8,-15.21 0,-21.02 l 15.95,-15.95 c 5.81,-5.8 15.22,-5.8 21.02,0 l 7.7,7.7 c 6.34,-3.53 13.13,-6.35 20.25,-8.38 v -10.9 c 0,-8.2 6.65,-14.86 14.86,-14.86 h 22.56 c 8.2,0 14.86,6.66 14.86,14.86 v 10.9 c 7.12,2.03 13.91,4.85 20.24,8.38 l 7.71,-7.7 c 5.8,-5.8 15.21,-5.8 21.02,0 l 15.95,15.95 c 5.8,5.81 5.8,15.21 0,21.02 l -7.71,7.7 c 3.54,6.34 6.36,13.12 8.39,20.25 h 10.89 c 8.21,0 14.86,6.65 14.86,14.86 v 22.56 c 0,8.2 -6.65,14.86 -14.86,14.86"
         style="fill:#ffffff;fill-opacity:1;fill-rule:nonzero;stroke:none"
         id="path256" />
      <path
         d="m 904.57,1938.58 c -33.879,0 -61.34,27.46 -61.34,61.34 0,33.88 27.461,61.34 61.34,61.34 33.879,0 61.344,-27.46 61.344,-61.34 0,-33.88 -27.465,-61.34 -61.344,-61.34 z m 128.6,94.09 h -13.65 c -2.54,8.93 -6.08,17.43 -10.51,25.37 l 9.65,9.65 c 7.28,7.27 7.28,19.06 0,26.34 l -19.98,19.98 c -7.274,7.27 -19.063,7.27 -26.336,0 l -9.653,-9.65 c -7.941,4.43 -16.441,7.96 -25.367,10.5 v 13.66 c 0,10.28 -8.34,18.62 -18.625,18.62 h -28.258 c -10.285,0 -18.625,-8.34 -18.625,-18.62 v -13.66 c -8.925,-2.54 -17.425,-6.07 -25.367,-10.5 l -9.648,9.65 c -7.274,7.27 -19.067,7.27 -26.336,0 l -19.985,-19.98 c -7.273,-7.28 -7.273,-19.07 0,-26.34 l 9.653,-9.65 c -4.434,-7.94 -7.969,-16.44 -10.508,-25.37 h -13.652 c -10.285,0 -18.621,-8.34 -18.621,-18.62 v -28.26 c 0,-10.29 8.336,-18.63 18.621,-18.63 h 13.652 c 2.539,-8.92 6.074,-17.42 10.508,-25.36 l -9.653,-9.65 c -7.273,-7.28 -7.273,-19.07 0,-26.34 l 19.985,-19.98 c 7.269,-7.28 19.062,-7.28 26.336,0 l 9.648,9.65 c 7.942,-4.43 16.442,-7.97 25.367,-10.51 v -13.65 c 0,-10.29 8.34,-18.62 18.625,-18.62 h 28.258 c 10.285,0 18.625,8.33 18.625,18.62 v 13.65 c 8.926,2.54 17.426,6.08 25.367,10.51 l 9.653,-9.65 c 7.273,-7.28 19.062,-7.28 26.336,0 l 19.98,19.98 c 7.28,7.27 7.28,19.06 0,26.34 l -9.65,9.65 c 4.43,7.94 7.97,16.44 10.51,25.36 h 13.65 c 10.28,0 18.62,8.34 18.62,18.63 v 28.26 c 0,10.28 -8.34,18.62 -18.62,18.62"
         style="fill:#ffffff;fill-opacity:1;fill-rule:nonzero;stroke:none"
         id="path258" />
      <path
         d="m 834.477,3334.17 -242.09,106.41 c -15.039,6.61 -32.59,-0.22 -39.203,-15.26 L 345.707,2953.31 c -6.613,-15.03 0.223,-32.58 15.262,-39.19 l 343.035,-150.79 c 15.039,-6.61 32.586,0.22 39.195,15.26 l 163.11,371.06 -71.832,184.52"
         style="fill:#ffffff;fill-opacity:1;fill-rule:nonzero;stroke:none"
         id="path260" />
      <path
         d="m 790.105,3233.23 c -6.613,-15.05 0.219,-32.6 15.258,-39.21 l 100.946,-44.37 -71.832,184.52 -44.372,-100.94"
         style="fill:#c8a79a;fill-opacity:1;fill-rule:nonzero;stroke:none"
         id="path262" />
      <path
         d="m 694.031,3076.38 84.918,33.06 c 16.305,6.34 24.375,24.71 18.028,41.01 -6.348,16.3 -24.711,24.37 -41.012,18.03 l -84.918,-33.06 -33.059,84.92 c -6.347,16.3 -24.711,24.37 -41.011,18.03 -16.305,-6.35 -24.375,-24.71 -18.032,-41.02 l 33.063,-84.91 -84.918,-33.07 c -16.305,-6.34 -24.375,-24.7 -18.027,-41.01 6.343,-16.3 24.707,-24.37 41.011,-18.03 l 84.918,33.06 33.059,-84.91 c 6.347,-16.31 24.707,-24.38 41.012,-18.03 16.304,6.34 24.375,24.71 18.027,41.01 l -33.059,84.92"
         style="fill:#e64b62;fill-opacity:1;fill-rule:nonzero;stroke:none"
         id="path264" />
      <g
         id="g266"
         transform="scale(10)">
        <text
           xml:space="preserve"
           transform="matrix(1,0,0,-1,245.58,311.426)"
           style="font-variant:normal;font-weight:bold;font-size:11.5836px;font-family:Quicksand;-inkscape-font-specification:Quicksand-Bold;writing-mode:lr-tb;fill:#212e47;fill-opacity:1;fill-rule:nonzero;stroke:none"
           id="text270"><tspan
             x="0 8.5139456 17.305899 20.549307 28.773914 35.597149 42.269016"
             y="0"
             sodipodi:role="line"
             id="tspan268">NO DATA</tspan></text>
      </g>
      <g
         id="g272"
         transform="scale(10)">
        <text
           xml:space="preserve"
           transform="matrix(1,0,0,-1,143.16,374.591)"
           style="font-variant:normal;font-weight:bold;font-size:44.2923px;font-family:Quicksand;-inkscape-font-specification:Quicksand-Bold;writing-mode:lr-tb;fill:#79aad7;fill-opacity:1;fill-rule:nonzero;stroke:none"
           id="text276"><tspan
             x="0 35.155861 70.310928"
             y="0"
             sodipodi:role="line"
             id="tspan274">???</tspan></text>
      </g>
    </g>
  </g>
</svg>
